<svg xmlns="http://www.w3.org/2000/svg" viewBox="0 0 150 150">
  <path fill="#e8b207" stroke="#000" stroke-miterlimit="10" stroke-width="4" d="M23.9 22.8c-25.3 20.5-23.4 68.6-5 92.8a80.3 80.3 0 0 0 124.4 0c4-4.5 0-9.3-4.2-7.5C82 132.7 30.8 62.6 36.5 27.9 38.6 15.1 44 5.8 33 5.8s-9.1 17-9.1 17Z" data-name="&lt;Path&gt;"/>
  <path fill="#84910c" d="M31.4 22.7a11.8 11.8 0 0 1-5.6-1.2c-.2-2.5 0-8.6 2.4-11.6a5.7 5.7 0 0 1 4.3-2.2c2 0 3.8.2 4.6 1.2 1.2 1.5.1 6.3-1 10.9l-.5 2.4a15.3 15.3 0 0 1-4.2.5Z"/>
  <path fill="none" stroke="#000" stroke-miterlimit="10" stroke-width="2" d="M24.3 21.7c2.3 2.2 11 1.9 12.8 1.2"/>
  <path fill="#f1f206" stroke="#000" stroke-miterlimit="10" stroke-width="2" d="M36.7 24c-18.1-4-20 48.1-2.2 71.2 24.7 31.9 69.5 40.8 109 14-1.2-1.3-2-3-4.2-2.2-13.7 5-46.5 14.7-79.4-21.5-25.6-28-23.2-52.7-23.2-61.6Z"/>
</svg>
