<svg xmlns="http://www.w3.org/2000/svg" viewBox="0 0 64 64">
  <path d="M56.9 45.3a10 10 0 0 0 2.8-6.2V39c.3-5.4-3.7-10-9.1-10.3h-.7a7 7 0 0 0 2.4-4.5v-.1c.5-4-2.3-7.5-6.3-8h-.3c.4-1.1.5-2.4.4-3.6-.4-2.9-2.8-5.1-7.2-5.1-9.3 0-14.8-3.8-16.1-7.2-5.7 2.7-5.8 9.9-2.8 12.7h-.3c-4-.5-7.5 2.3-8 6.3v.1a7.2 7.2 0 0 0 3.8 7.3h-.7a9.7 9.7 0 0 0-10.3 9.1v.1c-.3 4 2 7.7 5.4 9.4h-.4C4.3 45 0 49.3 0 54.5S4.3 64 9.5 64h45c5.2 0 9.5-4.3 9.5-9.5 0-4.4-3-8.1-7.1-9.2z" fill="#8c5c3b"/>
  <circle cx="38.5" cy="36.5" r="7.5" fill="#fff"/>
  <circle cx="38.5" cy="36.5" r="3.5" />
  <circle cx="25.5" cy="36.5" r="7.5" fill="#fff" />
  <circle cx="25.5" cy="36.5" r="3.5" />
  <path d="M16 38h32v8H16z" fill="#8c5c3b"/>
  <path d="M46 42c0 7.7-6.3 14-14 14s-14-6.3-14-14h28z" />
  <path fill="#dc2863" d="M32 48.3c-4.2 0-7.9 1.4-10.1 3.5C24.5 54.4 28.1 56 32 56s7.5-1.6 10.1-4.3A14.8 14.8 0 0 0 32 48.3z"/>
</svg>
