<svg xmlns="http://www.w3.org/2000/svg" viewBox="0 0 64 64">
  <path fill="#ffe3d6" d="M1.5 13.5s7.3 4 8.2 7c0 0 2.4 7.3 2.4 11.4l5.7 8.8-5 10.6s3.3 9.2 20.8 5.3l3.5-7.6S49 47.5 50 33.3l6.7-9s4.9-5.7 5.8-7.8c.4-.8-2.3-8.8-8.7 0L48 21.6s1-6.4-4.4-5.9c0 0-.6-4.8-5.8-3.9 0 0-2-5.2-7.6-2.4 0 0-5.9 3.4-7.1 4.3-1.2.9-2.7 5-2.7 5L15 11.4c-1.5-2-6-4-9.6-3.8 0 0-4.6.4-4 6z"/>
  <path fill="#eab8a8" d="M17.8 15.7s.9 4.9-1.3 8c-2 3.2 2.4 2 2.4 2l1.7-8zM21 15s8-2.4 12 1.5c0 0 5.3 1 5.5 5 0 0 2.2-.9 5.7 2.9 0 0-3 1.8-3.4 3-.4 1.2 4.3 1.6 7.3-6.8 0 0-.7-6.7-5-4.4 0 0 .1-6.4-6-4.4 0 0-1.5-8.2-16 3.3zm-8.9 15.7 11 8c6.7 5 23 4.8 11.5 9.5-3.2 1.3-14.1-1.4-18.1-4.7l1.4-3.5z"/>
  <path fill="#eab8a8" d="M32 13.5s-1.1 1.6-3.5 3.7c-1.5 1.3-.7 4.2 2.9 2 3-2 4.2-3.5 4.2-3.5zm6.6 4.5s-4.4 5.3-1.9 5.7c2.5.3 3-1 4.4-2.8z"/>
  <path d="M25.7 58.4C14.6 58.4 12 52 12 51.6l-.1-.3 5-10.5-5.6-8.7V32c0-3.9-2.4-11-2.4-11-.6-2.1-5-5.2-7.8-6.7L.8 14v-.4c-.7-5 3.4-6.8 5.7-7v-.1h.1c4.5.2 7.7 2.4 9.2 4.4l4.2 5.9a9.6 9.6 0 0 1 2.3-3.6c1.3-.9 7.2-4.3 7.5-4.5a8 8 0 0 1 3.5-.9c2.9 0 4.4 2 5 3.1h.8a5 5 0 0 1 5.1 4c1.5 0 2.6.5 3.4 1.4a6 6 0 0 1 1.3 3.5l4.3-3.8c2.2-3 4.2-4.4 6-4.4 1.2 0 2.4.7 3.2 2 .7 1 1.2 2.5.9 3.2a60 60 0 0 1-6 8.1l-6.5 8.7a16.9 16.9 0 0 1-13 16.2l-3.6 7.6h-.4c-3 .7-5.7 1-8.1 1zm-12-7c.5 1.1 3.3 5.4 12 5.4 2.2 0 4.7-.3 7.4-.9l3.5-7.6h.4c.5-.1 11.2-1.8 12.2-15V33l6.8-9c1.4-1.6 5-6 5.7-7.6 0-.4-.3-1.6-1-2.4a2 2 0 0 0-1.5-.7c-1 0-2.4.7-4.7 3.8l-.1.1-7.5 6.6.3-2.2s.4-2.7-.8-4.1c-.6-.7-1.5-1-2.8-.9H43l-.1-.7c0-.3-.6-3.3-3.7-3.3l-1.1.1-.7.2-.3-.7s-1-2.7-3.7-2.7c-.8 0-1.8.3-2.8.8l-7.3 4.4c-.7.5-1.7 2.7-2.2 4.2l-.6 1.4-.9-1.3-5-7c-1.2-1.6-4-3.6-7.9-3.8-.5.1-4.5.9-4.3 5 1.7.9 7.4 4.3 8.1 7.3.1.2 2.4 7 2.5 11.3l5.8 9z M28 47.1c-8.8-2-10.8-5.9-10.8-6a.8.8 0 0 1 1.4-.7s1.9 3.4 9.7 5.1a.8.8 0 0 1-.2 1.6z M29.8 19.1a.8.8 0 0 1-.5-1.4s5.6-4.7 8-6.5a.8.8 0 1 1 1 1.3l-8 6.4c0 .2-.3.2-.5.2zm7.8 4.2c-.2 0-.4 0-.5-.2A.8.8 0 0 1 37 22l6-6.8a.8.8 0 0 1 1.2 1l-6 6.9-.6.2zm6.6 3.3-.6-.2a.8.8 0 0 1 0-1.2l3.9-4.1a.8.8 0 0 1 1.1 1.1l-3.8 4.1-.6.3z"/>
</svg>
